<svg width="28" height="28" viewBox="0 0 28 28" fill="none" xmlns="http://www.w3.org/2000/svg">
<path fill-rule="evenodd" clip-rule="evenodd" d="M12.4351 0.0507714C5.96688 0.832587 0.925425 5.80448 0.0922423 12.2233C-0.0310808 13.1736 -0.0307049 14.8132 0.0931196 15.7584C0.420853 18.2596 1.38519 20.6021 2.89183 22.5562C4.56966 24.7325 6.92608 26.411 9.51155 27.2716C11.0808 27.7939 12.3513 28 14.0017 28C16.2281 28 18.218 27.5377 20.2054 26.5586C24.5521 24.4173 27.4462 20.2265 27.9505 15.3432C28.0526 14.3542 27.9911 12.635 27.8179 11.6404C26.7914 5.74524 22.2572 1.2093 16.3516 0.169614C15.4539 0.011596 13.3001 -0.0537799 12.4351 0.0507714ZM6.40829 5.97641C6.03757 6.10779 5.62862 6.49227 5.39683 6.92727C4.88085 7.89563 4.2549 11.3068 4.33141 12.7333L4.3514 13.1054L4.00675 13.1903C3.43262 13.3319 2.54674 13.6389 2.32835 13.7721C2.06754 13.9312 2.01948 14.057 2.16029 14.2126C2.31908 14.3881 2.68197 14.3714 3.5681 14.1476C3.97767 14.0442 4.34257 13.9595 4.3791 13.9595C4.41557 13.9595 4.4454 14.0264 4.4454 14.1081C4.4454 14.3915 4.70176 15.7315 4.91287 16.5515C5.17675 17.5767 5.6008 18.8014 6.08789 19.9455C6.62141 21.1986 7.75595 23.4068 7.94106 23.5524C8.36116 23.883 9.45853 23.4709 9.45853 22.9825C9.45853 22.9213 9.17867 22.3257 8.83659 21.659C7.43974 18.9368 6.56013 16.3956 6.22293 14.1082C6.16948 13.7455 6.13539 13.4399 6.14723 13.4291C6.18408 13.3952 8.4769 12.6596 8.68093 12.6162C8.78746 12.5935 8.97038 12.4951 9.08737 12.3973C9.28038 12.2362 9.29416 12.203 9.23607 12.0397C9.1726 11.8613 9.16771 11.8598 8.67297 11.8649C8.24429 11.8693 8.03693 11.9163 7.20262 12.1984C6.66841 12.379 6.19154 12.5427 6.14297 12.5623C6.00906 12.616 6.09409 11.1424 6.29205 9.97932C6.45849 9.0015 6.72663 7.80982 6.81624 7.64961C6.88028 7.53521 7.11608 8.04117 7.46343 9.03823C7.59572 9.41795 7.75118 9.76351 7.80884 9.80613C8.21465 10.1063 9.25487 9.81184 9.36698 9.36511C9.4131 9.18121 8.96618 7.89425 8.60925 7.18339C8.12836 6.22575 7.69686 5.87299 7.01463 5.88007C6.82507 5.88201 6.55223 5.92539 6.40829 5.97641ZM17.2284 7.26838C16.9164 7.48093 16.8785 7.57382 16.9622 7.92258C17.002 8.0885 17.0531 8.59502 17.0757 9.04814L17.1168 9.87207L16.7983 9.94039C16.6231 9.97794 16.37 10.0263 16.2356 10.0478C16.1013 10.0693 15.8821 10.148 15.7485 10.2226C15.2638 10.4937 15.471 11.0135 16.0638 11.0135C16.2063 11.0135 16.5094 10.9618 16.7373 10.8987L17.1516 10.7837L17.1936 11.4158C17.3961 14.4605 17.6561 16.1067 18.0308 16.7175C18.3662 17.2641 19.0733 17.5753 19.613 17.4135C20.244 17.2244 20.2892 16.4041 19.6685 16.4041C19.5782 16.4041 19.46 16.3547 19.4059 16.2944C19.0731 15.9231 18.7179 13.7526 18.5704 11.1892L18.5282 10.456L18.7088 10.4151C19.2437 10.294 19.364 10.2441 19.4814 10.0947C19.7774 9.71832 19.5992 9.54407 18.9601 9.58506L18.4993 9.61464L18.456 8.70007C18.4083 7.69261 18.3366 7.35225 18.1437 7.21705C17.9437 7.07696 17.4705 7.10347 17.2284 7.26838ZM23.4013 10.4453C23.0052 10.5418 22.8137 10.6895 22.7427 10.9534C22.6269 11.3833 22.5564 12.1979 22.5558 13.109L22.5553 13.9822L22.3041 14.3679C21.9687 14.8828 21.772 15.0664 21.6576 14.9715C21.4202 14.7745 21.1537 13.3871 21.0536 11.8284C21.0149 11.2251 20.9713 10.6963 20.9566 10.6531C20.8969 10.4772 20.0055 10.5942 19.7348 10.8135L19.5987 10.9237L19.7008 12.3042C19.9188 15.2496 20.2734 15.9391 21.4575 15.7201C21.6577 15.6831 21.9724 15.5837 22.1571 15.4992L22.4927 15.3455L22.4923 15.5143C22.4917 15.8173 22.3063 16.9262 22.178 17.3944C21.9473 18.2369 21.5178 18.9359 20.9874 19.3319C20.6242 19.6032 20.5916 19.7811 20.8907 19.8607C21.5901 20.0466 22.652 19.2305 23.212 18.0765C23.7206 17.0284 23.8472 16.1789 23.9328 13.2387C23.9723 11.8822 24.0179 11.1821 24.084 10.9195C24.1704 10.5757 24.1697 10.5367 24.0756 10.4651C23.9642 10.3804 23.7001 10.3726 23.4013 10.4453ZM14.3931 11.6439C13.9838 11.7435 13.5565 12.0005 13.2829 12.3112C13.0533 12.572 13.0221 12.6415 13.0481 12.835C13.0645 12.9577 13.04 13.2538 12.9938 13.4931C12.9472 13.734 12.9086 14.3512 12.9074 14.8759C12.9028 16.7618 13.2629 17.8288 14.0373 18.224C14.7003 18.5624 15.7824 18.1557 16.3578 17.3519C16.7691 16.7774 16.8855 16.2915 16.8774 15.1818C16.8717 14.3888 16.8457 14.1476 16.7116 13.6417C16.537 12.9834 16.1967 12.2505 15.9655 12.0352C15.6231 11.7163 14.8678 11.5283 14.3931 11.6439ZM10.1056 12.3308C9.3072 12.4943 8.74046 13.064 8.73495 13.7088C8.73332 13.8984 8.69528 14.3356 8.65048 14.6804C8.51775 15.7014 8.64948 17.1074 8.95377 17.9176C9.10956 18.3325 9.52352 18.8298 9.81403 18.9512C10.6725 19.31 11.9972 18.5595 12.4034 17.4842C12.8994 16.1713 12.5124 13.6087 11.6904 12.7623C11.3336 12.3949 10.6723 12.2148 10.1056 12.3308ZM14.5071 12.9622C14.3393 13.5274 14.2658 14.3291 14.3034 15.1818C14.3399 16.0111 14.4433 16.5252 14.6708 17.0093C14.8195 17.3256 14.9121 17.3103 15.1786 16.925C15.4237 16.5708 15.4947 16.127 15.4571 15.1854C15.4109 14.0303 15.0755 12.895 14.7251 12.7074C14.6145 12.6483 14.5928 12.6737 14.5071 12.9622ZM10.2166 13.6305C9.84856 15.041 9.98215 17.136 10.4862 17.8558C10.5778 17.9866 10.5782 17.9865 10.7476 17.8066C11.0666 17.4677 11.171 17.1289 11.1991 16.3414C11.219 15.7859 11.1963 15.4841 11.1003 15.0251C10.8999 14.0665 10.5971 13.3954 10.365 13.3954C10.3172 13.3954 10.2504 13.5012 10.2166 13.6305ZM16.8747 18.2985C15.235 20.0656 14.7765 20.3865 13.5301 20.6391C13.1458 20.717 12.8098 20.7358 12.1933 20.7136C11.2379 20.6793 10.7137 20.5413 10.2323 20.1973C9.72611 19.8357 9.51869 19.7583 9.33339 19.862C9.09546 19.9951 9.09903 20.2049 9.34354 20.4603C9.87393 21.0142 10.8487 21.5594 11.7458 21.8038C12.415 21.9862 13.9125 22.004 14.5343 21.8371C15.4587 21.5889 16.2441 21.1019 17.0533 20.2751C17.7894 19.523 17.9809 19.2256 17.9809 18.8348C17.9809 18.3343 17.714 17.9711 17.3463 17.9711C17.2244 17.9711 17.0952 18.0607 16.8747 18.2985Z" fill="#DA0F0F"/>
</svg>
